<svg xmlns="http://www.w3.org/2000/svg" width="64" height="64" enable-background="new 0 0 64 64" viewBox="0 0 64 64" id="boot-insole"><path fill="#545C66" d="M42,15v14c0,2.48-0.71,3.359-1.99,4.971C38.32,36.08,36,38.98,36,45.01V52v0.01
			c-0.01,3.85-3.14,6.99-7,6.99s-7-3.141-7-7c0-0.02,0-0.029,0-0.04V15.141c0-0.051,0.01-0.091,0.01-0.141c0-5.51,4.49-10,10-10
			S42,9.49,42,15z"></path><path fill="#434A54" d="M24.019 56.996c-.553 0-1.005-.447-1.005-1s.442-1 .994-1h.011c.552 0 1 .447 1 1S24.57 56.996 24.019 56.996zM24.019 48.996c-.553 0-1.005-.447-1.005-1s.442-1 .994-1h.011c.552 0 1 .447 1 1S24.57 48.996 24.019 48.996zM28.019 52.996c-.553 0-1.005-.447-1.005-1s.442-1 .994-1h.011c.552 0 1 .447 1 1S28.57 52.996 28.019 52.996zM32.019 56.996c-.553 0-1.005-.447-1.005-1s.442-1 .994-1h.011c.552 0 1 .447 1 1S32.57 56.996 32.019 56.996zM24.019 40.996c-.553 0-1.005-.447-1.005-1s.442-1 .994-1h.011c.552 0 1 .447 1 1S24.57 40.996 24.019 40.996zM28.019 44.996c-.553 0-1.005-.447-1.005-1s.442-1 .994-1h.011c.552 0 1 .447 1 1S28.57 44.996 28.019 44.996zM32.019 48.996c-.553 0-1.005-.447-1.005-1s.442-1 .994-1h.011c.552 0 1 .447 1 1S32.57 48.996 32.019 48.996zM24.019 32.997c-.553 0-1.005-.448-1.005-1s.442-1 .994-1h.011c.552 0 1 .448 1 1S24.57 32.997 24.019 32.997zM28.019 36.996c-.553 0-1.005-.447-1.005-1s.442-1 .994-1h.011c.552 0 1 .447 1 1S28.57 36.996 28.019 36.996zM32.019 40.996c-.553 0-1.005-.447-1.005-1s.442-1 .994-1h.011c.552 0 1 .447 1 1S32.57 40.996 32.019 40.996zM24.019 24.997c-.553 0-1.005-.448-1.005-1s.442-1 .994-1h.011c.552 0 1 .448 1 1S24.57 24.997 24.019 24.997zM28.019 28.997c-.553 0-1.005-.448-1.005-1s.442-1 .994-1h.011c.552 0 1 .448 1 1S28.57 28.997 28.019 28.997zM32.019 32.997c-.553 0-1.005-.448-1.005-1s.442-1 .994-1h.011c.552 0 1 .448 1 1S32.57 32.997 32.019 32.997zM36.019 36.996c-.553 0-1.005-.447-1.005-1s.442-1 .994-1h.011c.552 0 1 .447 1 1S36.57 36.996 36.019 36.996zM24.019 16.997c-.553 0-1.005-.448-1.005-1s.442-1 .994-1h.011c.552 0 1 .448 1 1S24.57 16.997 24.019 16.997zM28.019 20.997c-.553 0-1.005-.448-1.005-1s.442-1 .994-1h.011c.552 0 1 .448 1 1S28.57 20.997 28.019 20.997zM32.019 24.997c-.553 0-1.005-.448-1.005-1s.442-1 .994-1h.011c.552 0 1 .448 1 1S32.57 24.997 32.019 24.997zM36.019 28.997c-.553 0-1.005-.448-1.005-1s.442-1 .994-1h.011c.552 0 1 .448 1 1S36.57 28.997 36.019 28.997zM40.019 32.997c-.553 0-1.005-.448-1.005-1s.442-1 .994-1h.011c.552 0 1 .448 1 1S40.57 32.997 40.019 32.997zM24.019 8.997c-.553 0-1.005-.448-1.005-1s.442-1 .994-1h.011c.552 0 1 .448 1 1S24.57 8.997 24.019 8.997zM28.019 12.997c-.553 0-1.005-.448-1.005-1s.442-1 .994-1h.011c.552 0 1 .448 1 1S28.57 12.997 28.019 12.997zM32.019 16.997c-.553 0-1.005-.448-1.005-1s.442-1 .994-1h.011c.552 0 1 .448 1 1S32.57 16.997 32.019 16.997zM36.019 20.997c-.553 0-1.005-.448-1.005-1s.442-1 .994-1h.011c.552 0 1 .448 1 1S36.57 20.997 36.019 20.997zM40.019 24.997c-.553 0-1.005-.448-1.005-1s.442-1 .994-1h.011c.552 0 1 .448 1 1S40.57 24.997 40.019 24.997zM32.019 8.997c-.553 0-1.005-.448-1.005-1s.442-1 .994-1h.011c.552 0 1 .448 1 1S32.57 8.997 32.019 8.997zM36.019 12.997c-.553 0-1.005-.448-1.005-1s.442-1 .994-1h.011c.552 0 1 .448 1 1S36.57 12.997 36.019 12.997zM40.019 16.997c-.553 0-1.005-.448-1.005-1s.442-1 .994-1h.011c.552 0 1 .448 1 1S40.57 16.997 40.019 16.997z"></path><g><path fill="#656D78" d="M46,15v13c0,8-6,7.02-6,16.01V52c0,6.07-4.92,11-11,11c-6.07,0-11-4.93-11-11V15h0.01
			c0-7.73,6.271-14,14-14C39.73,1,46,7.27,46,15z M42,29V15c0-5.51-4.48-10-9.99-10s-10,4.49-10,10c0,0.05-0.01,0.09-0.01,0.141
			V51.96c0,0.011,0,0.021,0,0.04c0,3.859,3.14,7,7,7s6.99-3.141,7-6.99V52v-6.99c0-6.029,2.32-8.93,4.01-11.039
			C41.29,32.359,42,31.48,42,29z"></path></g></svg>