<svg xmlns="http://www.w3.org/2000/svg" enable-background="new 0 0 48 48" viewBox="0 0 48 48" id="lotion"><path d="M24,28c2.8,0,5-3.07,5-7c0-3.64-4.07-8.45-4.24-8.65c-0.01-0.01-0.02-0.01-0.03-0.02C24.55,12.13,24.29,12,24,12
		s-0.55,0.13-0.73,0.33c-0.01,0.01-0.02,0.01-0.03,0.02C23.07,12.55,19,17.36,19,21C19,24.93,21.2,28,24,28z M25,16.05
		c1.01,1.57,2,3.5,2,4.95c0,2.13-0.85,3.98-2,4.68V16.05z M23,16.05v9.63c-1.15-0.71-2-2.56-2-4.68C21,19.55,21.99,17.62,23,16.05z"></path><path d="M16.5,37v5c0,1.65,1.35,3,3,3h9c1.65,0,3-1.35,3-3v-5c0-0.32-0.16-0.59-0.38-0.77l3.88-28.09C35,8.09,35,8.05,35,8V4
		c0-0.55-0.45-1-1-1H14c-0.55,0-1,0.45-1,1v4c0,0.05,0,0.09,0.01,0.14l3.88,28.09C16.66,36.41,16.5,36.68,16.5,37z M29.5,42
		c0,0.55-0.45,1-1,1h-9c-0.55,0-1-0.45-1-1v-1h11V42z M29.5,39h-11v-1h11V39z M15,5h18v2H15V5z M15.15,9h17.71l-3.72,27H18.87
		L15.15,9z"></path></svg>